<?xml version="1.0" encoding="UTF-8" standalone="no"?>
<svg
   xmlns:dc="http://purl.org/dc/elements/1.1/"
   xmlns:cc="http://creativecommons.org/ns#"
   xmlns:rdf="http://www.w3.org/1999/02/22-rdf-syntax-ns#"
   xmlns:svg="http://www.w3.org/2000/svg"
   xmlns="http://www.w3.org/2000/svg"
   viewBox="0 0 831.50665 831.50665"
   height="831.50665"
   width="831.50665"
   xml:space="preserve"
   id="svg2"
   version="1.1"><metadata
     id="metadata8"><rdf:RDF><cc:Work
         rdf:about=""><dc:format>image/svg+xml</dc:format><dc:type
           rdf:resource="http://purl.org/dc/dcmitype/StillImage" /></cc:Work></rdf:RDF></metadata><defs
     id="defs6" /><g
     transform="matrix(1.3333333,0,0,-1.3333333,0,831.50667)"
     id="g10"><g
       transform="scale(0.1)"
       id="g12"><path
         id="path14"
         style="fill:#4B4B4B;fill-opacity:1;fill-rule:nonzero;stroke:none"
         d="M 453.813,4141.44 H 2547.07 v 642 H 453.813 v -642" /><path
         id="path16"
         style="fill:#4B4B4B;fill-opacity:1;fill-rule:nonzero;stroke:none"
         d="m 4131.84,5671.63 v -780.34 h -780.08 v -690.28 h 780.08 v -780.26 h 690.48 v 780.26 h 780.12 v 690.28 h -780.12 v 780.34 h -690.48" /><path
         id="path18"
         style="fill:#4B4B4B;fill-opacity:1;fill-rule:nonzero;stroke:none"
         d="m 3847.56,734.16 537.06,537.06 537.06,-537.06 475.3,475.31 -537.02,537.05 537.02,536.96 -475.2,475.24 -537.06,-537.01 -537.01,537.01 -475.3,-475.24 537.02,-537.06 -537.02,-536.95 475.15,-475.31" /><path
         id="path20"
         style="fill:#4B4B4B;fill-opacity:1;fill-rule:nonzero;stroke:none"
         d="M 797.023,834.648 2511.87,2549.4 2034.52,3026.89 319.633,1312.14 797.023,834.648" /><path
         id="path22"
         style="fill:#4B4B4B;fill-opacity:1;fill-rule:nonzero;stroke:none"
         d="m 1069.63,2555.12 c 0,189.59 -153.806,343.31 -343.31,343.31 -189.55,0 -343.308,-153.72 -343.308,-343.31 0,-189.46 153.758,-343.27 343.308,-343.27 189.504,0 343.31,153.81 343.31,343.27" /><path
         id="path24"
         style="fill:#4B4B4B;fill-opacity:1;fill-rule:nonzero;stroke:none"
         d="m 2416.75,1275.86 c 0,189.51 -153.81,343.26 -343.36,343.26 -189.45,0 -343.21,-153.75 -343.21,-343.26 0,-189.65 153.76,-343.309 343.21,-343.309 189.55,0 343.36,153.659 343.36,343.309" /></g></g></svg>
