<?xml version="1.0" encoding="UTF-8" standalone="no"?>
<svg
   xmlns:dc="http://purl.org/dc/elements/1.1/"
   xmlns:cc="http://creativecommons.org/ns#"
   xmlns:rdf="http://www.w3.org/1999/02/22-rdf-syntax-ns#"
   xmlns:svg="http://www.w3.org/2000/svg"
   xmlns="http://www.w3.org/2000/svg"
   viewBox="0 0 831.50665 831.50665"
   height="831.50665"
   width="831.50665"
   xml:space="preserve"
   id="svg2"
   version="1.1"><metadata
     id="metadata8"><rdf:RDF><cc:Work
         rdf:about=""><dc:format>image/svg+xml</dc:format><dc:type
           rdf:resource="http://purl.org/dc/dcmitype/StillImage" /></cc:Work></rdf:RDF></metadata><defs
     id="defs6" /><g
     transform="matrix(1.3333333,0,0,-1.3333333,0,831.50667)"
     id="g10"><g
       transform="scale(0.1)"
       id="g12"><path
         id="path14"
         style="fill:#4B4B4B;fill-opacity:1;fill-rule:nonzero;stroke:none"
         d="m 5288.78,2022.3 h 145.29 l -259.28,-448.95 -259.18,448.95 h 145.11 v 702.6 h 228.06 z M 1666.65,2780.09 V 2077.5 h -228.08 v 702.59 h -145.2 l 259.1,448.95 259.28,-448.95 z m 1714.83,-702.78 c -7.74,0 -15.12,-1.57 -22.68,-2.27 l 2019.91,991.58 c 58.18,28.65 80.5,102.48 49.92,164.88 -30.59,62.4 -102.75,90 -160.93,61.18 L 2495.1,1931.43 2269.83,3630 547.004,3401.48 789.496,1573.35 2201.37,1760.74 c -17.84,-33.93 -21.18,-75.94 -2.28,-114.78 30.76,-62.41 102.74,-89.83 161.01,-61.18 l 836.63,410.72 c -41.31,-44.92 -67.15,-104.33 -67.15,-170.07 0,-139.23 112.77,-252.08 251.9,-252.08 139.13,0 251.98,112.85 251.98,252.08 0,139.03 -112.85,251.88 -251.98,251.88" /></g></g></svg>
